:version 1.10
:name BioSkeleton
:units
   mass 1.0
   length 1.0
   angle deg
:documentation
   Data translated and provided by
   BioVision Motion Capture Studios
:root
   axis XYZ
   order TX TY TZ RZ RY RX
   position 0.0 0.0 0.0
   orientation 0.0 0.0 0.0
:bonedata
begin
   id 1
   name hips
   direction 0.000000 1.000000 0.000000
   length 0.000000
   axis 0.00000 0.00000 0.00000 XYZ
   dof rx ry rz
   limits (-180.0 180.0)
      (-180.0 180.0)
      (-180.0 180.0)
end
begin
   id 2
   name hips1
   direction 0.000000 1.000000 0.000000
   length  4.310000
   axis 0.000 0.000 0.000 XYZ
end
begin
   id 3
   name chest
   direction 0.000000 1.000000 0.000000
   length 0.000000
   axis 0.00000 0.00000 0.00000 XYZ
   dof rx ry rz
   limits (-180.0 180.0)
      (-180.0 180.0)
      (-180.0 180.0)
end
begin
   id 4
   name chest1
   direction 0.000000 1.000000 0.000000
   length  16.870001
   axis 0.000 0.000 0.000 XYZ
end
begin
   id 5
   name neck
   direction 0.000000 1.000000 0.000000
   length 4.020000
   axis 0.00000 0.00000 0.00000 XYZ
   dof rx ry rz
   limits (-180.0 180.0)
      (-180.0 180.0)
      (-180.0 180.0)
end
begin
   id 6
   name head
   direction 1.000000 0.000000 0.000000
   length 0.000000
   axis 0.00000 0.00000 0.00000 XYZ
   dof rx ry rz
   limits (-180.0 180.0)
      (-180.0 180.0)
      (-180.0 180.0)
end
begin
   id 7
   name chest2
   direction 0.068191 0.991126 0.114101
   length  14.811435
   axis 0.000 0.000 0.000 XYZ
end
begin
   id 8
   name leftcollar
   direction 1.000000 0.000000 0.000000
   length 4.830000
   axis 0.00000 0.00000 0.00000 XYZ
   dof rx ry rz
   limits (-180.0 180.0)
      (-180.0 180.0)
      (-180.0 180.0)
end
begin
   id 9
   name leftuparm
   direction 0.000000 -1.000000 0.000000
   length 12.160000
   axis 0.00000 0.00000 0.00000 XYZ
   dof rx ry rz
   limits (-180.0 180.0)
      (-180.0 180.0)
      (-180.0 180.0)
end
begin
   id 10
   name leftlowarm
   direction 0.000000 -1.000000 0.000000
   length 9.700000
   axis 0.00000 0.00000 0.00000 XYZ
   dof rx ry rz
   limits (-180.0 180.0)
      (-180.0 180.0)
      (-180.0 180.0)
end
begin
   id 11
   name lefthand
   direction 1.000000 0.000000 0.000000
   length 0.000000
   axis 0.00000 0.00000 0.00000 XYZ
   dof rx ry rz
   limits (-180.0 180.0)
      (-180.0 180.0)
      (-180.0 180.0)
end
begin
   id 12
   name chest3
   direction -0.068191 0.991126 0.114101
   length  14.811435
   axis 0.000 0.000 0.000 XYZ
end
begin
   id 13
   name rightcollar
   direction -1.000000 0.000000 0.000000
   length 5.390000
   axis 0.00000 0.00000 0.00000 XYZ
   dof rx ry rz
   limits (-180.0 180.0)
      (-180.0 180.0)
      (-180.0 180.0)
end
begin
   id 14
   name rightuparm
   direction 0.000000 -1.000000 0.000000
   length 12.480000
   axis 0.00000 0.00000 0.00000 XYZ
   dof rx ry rz
   limits (-180.0 180.0)
      (-180.0 180.0)
      (-180.0 180.0)
end
begin
   id 15
   name rightlowarm
   direction 0.000000 -1.000000 0.000000
   length 10.060000
   axis 0.00000 0.00000 0.00000 XYZ
   dof rx ry rz
   limits (-180.0 180.0)
      (-180.0 180.0)
      (-180.0 180.0)
end
begin
   id 16
   name righthand
   direction 1.000000 0.000000 0.000000
   length 0.000000
   axis 0.00000 0.00000 0.00000 XYZ
   dof rx ry rz
   limits (-180.0 180.0)
      (-180.0 180.0)
      (-180.0 180.0)
end
begin
   id 17
   name hips2
   direction 1.000000 0.000000 0.000000
   length  3.240000
   axis 0.000 0.000 0.000 XYZ
end
begin
   id 18
   name leftupleg
   direction 0.000000 -1.000000 0.000000
   length 17.290001
   axis 0.00000 0.00000 0.00000 XYZ
   dof rx ry rz
   limits (-180.0 180.0)
      (-180.0 180.0)
      (-180.0 180.0)
end
begin
   id 19
   name leftlowleg
   direction 0.000000 -1.000000 0.000000
   length 16.400000
   axis 0.00000 0.00000 0.00000 XYZ
   dof rx ry rz
   limits (-180.0 180.0)
      (-180.0 180.0)
      (-180.0 180.0)
end
begin
   id 20
   name leftfoot
   direction 1.000000 0.000000 0.000000
   length 0.000000
   axis 0.00000 0.00000 0.00000 XYZ
   dof rx ry rz
   limits (-180.0 180.0)
      (-180.0 180.0)
      (-180.0 180.0)
end
begin
   id 21
   name hips3
   direction -1.000000 0.000000 0.000000
   length  3.240000
   axis 0.000 0.000 0.000 XYZ
end
begin
   id 22
   name rightupleg
   direction 0.000000 -1.000000 0.000000
   length 17.680000
   axis 0.00000 0.00000 0.00000 XYZ
   dof rx ry rz
   limits (-180.0 180.0)
      (-180.0 180.0)
      (-180.0 180.0)
end
begin
   id 23
   name rightlowleg
   direction 0.000000 -1.000000 0.000000
   length 15.510000
   axis 0.00000 0.00000 0.00000 XYZ
   dof rx ry rz
   limits (-180.0 180.0)
      (-180.0 180.0)
      (-180.0 180.0)
end
begin
   id 24
   name rightfoot
   direction 1.000000 0.000000 0.000000
   length 0.000000
   axis 0.00000 0.00000 0.00000 XYZ
   dof rx ry rz
   limits (-180.0 180.0)
      (-180.0 180.0)
      (-180.0 180.0)
end
:hierarchy
begin
   root hips
   hips hips1 hips2 hips3
   hips1 chest
   chest chest1 chest2 chest3
   chest1 neck
   neck head
   chest2 leftcollar
   leftcollar leftuparm
   leftuparm leftlowarm
   leftlowarm lefthand
   chest3 rightcollar
   rightcollar rightuparm
   rightuparm rightlowarm
   rightlowarm righthand
   hips2 leftupleg
   leftupleg leftlowleg
   leftlowleg leftfoot
   hips3 rightupleg
   rightupleg rightlowleg
   rightlowleg rightfoot
end

:FULLY-SPECIFIED
:DEGREES
20
root -7.388099 40.914310 108.939507 -1.351150 23.855780 -3.789156
hips 0.000000 0.000000 0.000000
chest 29.416296 -35.985561 -7.696334
neck 31.677324 0.000000 6.207929
head -38.706833 -0.534214 -7.535908
leftcollar 0.000000 10.075887 10.914752
leftuparm -26.892946 -4.604654 24.826422
leftlowarm -110.582710 12.574469 30.102362
lefthand -0.514159 1.860486 15.540624
rightcollar 0.000000 -7.130159 4.586467
rightuparm 47.216385 26.765038 -26.337618
rightlowarm -93.574173 -0.819047 -12.890377
righthand -15.649681 -0.290578 -11.781947
leftupleg 35.496586 -10.313232 14.091348
leftlowleg 9.571649 -2.296723 0.992517
leftfoot 19.107191 6.404824 -4.266570
rightupleg -21.915905 -2.766126 -6.840092
rightlowleg 49.926739 -27.362364 -12.691661
rightfoot -13.964837 1.601446 8.884272
21
root -7.560884 40.877193 114.758514 -0.931399 23.259548 -2.008794
hips 0.000000 0.000000 0.000000
chest 27.241802 -39.204811 -7.869051
neck 34.209396 0.000000 7.954653
head -40.109970 -1.875294 -9.716125
leftcollar 0.000000 9.170745 13.359674
leftuparm -23.832739 -3.053061 26.597498
leftlowarm -111.681503 12.837375 29.198656
lefthand -0.169180 1.829384 15.674997
rightcollar 0.000000 -8.647713 5.153180
rightuparm 48.339874 27.516335 -29.829088
rightlowarm -96.472717 -1.366793 -11.873197
righthand -17.005507 -0.442512 -11.849689
leftupleg 35.671692 -10.086414 13.711061
leftlowleg 18.497652 1.334355 3.189673
leftfoot 20.365725 6.496581 -4.125193
rightupleg -21.233200 -3.023130 -7.729823
rightlowleg 25.392380 -29.288815 -5.286522
rightfoot -13.306279 1.498453 8.902083
22
root -7.704002 40.200233 120.617020 -0.069530 21.152750 -1.736294
hips 0.000000 0.000000 0.000000
chest 25.523808 -39.366833 -7.324724
neck 35.470371 0.000000 9.085876
head -40.060608 -3.186076 -11.141166
leftcollar 0.000000 8.895577 13.605915
leftuparm -20.417513 -5.316575 28.387573
leftlowarm -110.209106 12.034748 29.528175
lefthand 0.365546 1.673142 15.482555
rightcollar 0.000000 -10.087547 6.127071
rightuparm 48.097679 27.233345 -32.719978
rightlowarm -99.010780 -1.715193 -10.688876
righthand -18.064949 -0.620916 -11.934544
leftupleg 35.580898 -8.933355 12.246280
leftlowleg 32.394753 1.653525 5.661472
leftfoot 19.082798 6.403045 -4.269299
rightupleg -19.852947 -2.863459 -7.877221
rightlowleg 9.269389 -27.667494 -0.126477
rightfoot -12.656480 1.396589 8.918535
23
root -7.864677 39.131275 126.476410 -0.045628 17.901785 -3.042030
hips 0.000000 0.000000 0.000000
chest 25.423729 -37.033707 -5.649059
neck 34.837860 0.000000 8.932808
head -39.400990 -3.229992 -11.738783
leftcollar 0.000000 8.861250 12.016314
leftuparm -16.931469 -9.910737 29.209352
leftlowarm -106.246025 10.322918 31.589520
lefthand 0.867859 1.403909 14.965619
rightcollar 0.000000 -10.646702 7.725556
rightuparm 45.735935 25.429426 -34.841019
rightlowarm -100.924675 -1.915653 -9.825720
righthand -18.413107 -0.759133 -11.789010
leftupleg 35.397984 -7.725539 10.712202
leftlowleg 49.024761 0.188669 6.201568
leftfoot 17.268370 6.265209 -4.469472
rightupleg -18.779600 -2.182676 -6.390942
rightlowleg 6.114107 -26.558100 1.184634
rightfoot -11.539112 1.221046 8.944012
24
root -8.079523 37.919662 132.231140 -1.691389 14.167089 -5.154580
hips 0.000000 0.000000 0.000000
chest 26.872070 -33.475319 -2.498294
neck 32.154793 0.000000 7.366865
head -38.584339 -1.494415 -11.586229
leftcollar 0.000000 8.456552 9.290198
leftuparm -12.454876 -14.715009 28.244719
leftlowarm -100.460304 7.400833 34.903320
lefthand 1.335182 1.162627 14.395654
rightcollar 0.000000 -9.940730 9.923909
rightuparm 40.437046 22.713207 -36.309475
rightlowarm -101.991356 -1.919326 -8.960956
righthand -18.592527 -0.791780 -11.416884
leftupleg 33.967701 -6.957947 10.193832
leftlowleg 66.660622 0.153089 5.033010
leftfoot 15.175152 6.098385 -4.694913
rightupleg -18.391666 -0.987293 -2.966470
rightlowleg 15.241989 -26.159672 -1.027683
rightfoot -10.614228 1.075343 8.962547
25
root -8.365269 36.760235 137.829407 -4.089284 10.338472 -7.258251
hips 0.000000 0.000000 0.000000
chest 28.662039 -29.061632 1.232887
neck 29.337646 0.000000 5.502229
head -37.829365 0.212057 -10.858990
leftcollar 0.000000 7.404456 6.182884
leftuparm -6.070808 -18.484135 25.302738
leftlowarm -93.617935 2.825204 37.937675
lefthand 2.497391 0.981372 13.857674
rightcollar 0.000000 -8.326278 12.561844
rightuparm 32.095970 19.895390 -37.427822
rightlowarm -102.055748 -1.888371 -8.771269
righthand -18.585842 -0.675518 -10.600109
leftupleg 29.619297 -6.199606 10.755310
leftlowleg 83.708466 1.551193 4.118563
leftfoot 12.422650 5.866629 -4.981840
rightupleg -17.559319 0.496621 1.569042
rightlowleg 31.118151 -23.971977 -5.279930
rightfoot -13.347590 1.504915 8.900976
26
root -8.711086 35.886791 143.283493 -5.637910 6.094867 -8.657421
hips 0.000000 0.000000 0.000000
chest 29.481241 -22.908730 4.245893
neck 27.807240 0.000000 4.268887
head -36.888336 0.551048 -9.809568
leftcollar 0.000000 6.536332 3.591637
leftuparm 2.076786 -21.586330 21.638878
leftlowarm -86.921661 -2.464495 38.644226
lefthand 3.832147 0.841576 13.434984
rightcollar 0.000000 -6.928736 14.644682
rightuparm 21.336329 17.086166 -37.550419
rightlowarm -101.649986 -2.129394 -10.215822
righthand -18.040911 -0.385344 -8.766741
leftupleg 21.029877 -4.458131 11.429984
leftlowleg 98.510689 2.535323 3.707370
leftfoot 8.602563 5.522505 -5.361024
rightupleg -14.296930 1.560656 6.100209
rightlowleg 44.313744 -19.538063 -9.279003
rightfoot -20.027275 2.537500 8.665122
27
root -9.052986 35.577412 148.667450 -5.580352 1.072800 -9.045963
hips 0.000000 0.000000 0.000000
chest 29.045099 -14.159177 6.116360
neck 27.817068 0.000000 3.650642
head -36.085384 -0.507442 -8.391969
leftcollar 0.000000 6.519989 2.054629
leftuparm 11.195522 -25.400318 18.822252
leftlowarm -82.456398 -5.659446 36.674286
lefthand 3.938021 0.848538 13.266401
rightcollar 0.000000 -6.080178 14.800937
rightuparm 10.580968 13.792776 -35.337715
rightlowarm -102.500397 -2.680341 -11.910843
righthand -17.249491 -0.165204 -7.014462
leftupleg 8.915617 -1.741257 10.962131
leftlowleg 108.256439 3.507286 2.781835
leftfoot 3.983498 5.073352 -5.787759
rightupleg -7.622599 1.233850 9.140667
rightlowleg 49.000111 -13.644114 -11.964945
rightfoot -25.768610 3.396795 8.367649
28
root -9.317562 35.957924 154.122177 -3.932824 -4.576496 -8.705325
hips 0.000000 0.000000 0.000000
chest 28.299931 -2.987941 6.929066
neck 28.513100 0.000000 3.162412
head -35.695824 -2.426198 -6.343693
leftcollar 0.000000 7.296716 1.297599
leftuparm 20.227238 -30.646933 17.579733
leftlowarm -81.753304 -5.651584 34.195065
lefthand 3.171933 0.929515 13.206167
rightcollar 0.000000 -5.727540 12.800563
rightuparm 1.824494 10.031491 -31.568226
rightlowarm -105.273422 -3.173037 -11.458660
righthand -16.807890 -0.200651 -7.369000
leftupleg -3.373549 0.536668 9.028445
leftlowleg 109.460548 5.969076 1.685579
leftfoot -0.587774 4.595899 -6.173245
rightupleg 1.475074 -0.222329 8.569433
rightlowleg 46.120815 -6.916741 -12.579624
rightfoot -26.236547 3.465395 8.339637
